<svg width="2277" height="1405" viewBox="0 0 2277 1405" fill="none" xmlns="http://www.w3.org/2000/svg">
<path d="M1139.19 848.503C1441.74 848.503 1651 603.739 1651 527.439C1651 450.763 1441.36 206.378 1139.19 206.378C838.9 206.378 627 450.763 627 527.439C627 603.739 840.413 848.503 1139.19 848.503ZM1139.19 737.83C1021.34 737.83 928.422 642.267 927.665 527.439C927.288 409.591 1021.34 317.05 1139.19 317.05C1256.28 317.05 1350.34 409.591 1350.34 527.439C1350.34 642.267 1256.28 737.83 1139.19 737.83ZM1139.19 603.361C1181.12 603.361 1215.87 568.989 1215.87 527.439C1215.87 485.513 1181.12 451.14 1139.19 451.14C1096.88 451.14 1062.13 485.513 1062.13 527.439C1062.13 568.989 1096.88 603.361 1139.19 603.361Z" fill="black"/>
<path d="M616.816 1081.5C616.816 1084.17 615.816 1086 613.816 1087C612.15 1088 609.983 1088.5 607.316 1088.5C605.983 1088.5 604.483 1088.5 602.816 1088.5C601.15 1088.5 599.983 1088.5 599.316 1088.5C592.983 1088.5 588.483 1091.5 585.816 1097.5C584.483 1100.83 583.15 1104.5 581.816 1108.5C580.483 1112.5 579.15 1116.33 577.816 1120C565.483 1157.67 552.816 1195.17 539.816 1232.5C526.816 1269.5 513.983 1306.83 501.316 1344.5L439.316 1347C431.316 1322.33 423.316 1297.67 415.316 1273C407.65 1248 399.816 1223 391.816 1198C387.483 1184.33 383.15 1170.67 378.816 1157C374.816 1143.33 370.483 1129.83 365.816 1116.5C362.483 1108.17 358.15 1103.5 352.816 1102.5C347.816 1101.17 341.483 1100.5 333.816 1100.5C328.816 1100.5 326.316 1098.17 326.316 1093.5C326.316 1090.83 326.816 1089 327.816 1088C328.816 1087 330.483 1086.33 332.816 1086C336.15 1085.33 339.65 1084.83 343.316 1084.5C347.316 1083.83 350.983 1083.33 354.316 1083C361.65 1082 368.816 1081 375.816 1080C383.15 1078.67 390.483 1077.5 397.816 1076.5C400.15 1075.83 402.316 1075.33 404.316 1075C406.65 1074.67 408.983 1074.5 411.316 1074.5C415.983 1074.5 419.15 1076.67 420.816 1081C422.483 1085 423.816 1089.17 424.816 1093.5C426.15 1097.83 427.483 1102.17 428.816 1106.5L444.316 1160C451.983 1186.33 459.65 1212.83 467.316 1239.5C475.316 1265.83 483.15 1292.33 490.816 1319C502.816 1283.33 514.483 1247.67 525.816 1212C537.483 1176 547.316 1139.67 555.316 1103C555.65 1101.33 555.816 1099.83 555.816 1098.5C556.15 1096.83 556.316 1095.17 556.316 1093.5C556.316 1090.5 555.15 1088.83 552.816 1088.5C550.483 1087.83 548.15 1087.5 545.816 1087.5H528.316C525.65 1087.5 523.483 1087.17 521.816 1086.5C520.483 1085.83 519.816 1083.83 519.816 1080.5C519.816 1078.83 520.483 1077.5 521.816 1076.5C523.15 1075.17 524.483 1074.5 525.816 1074.5C533.816 1074.5 541.816 1074.67 549.816 1075C557.816 1075 565.816 1075 573.816 1075C579.816 1075 585.65 1074.83 591.316 1074.5C597.316 1074.17 603.316 1074 609.316 1074C611.316 1074 612.983 1074.83 614.316 1076.5C615.983 1077.83 616.816 1079.5 616.816 1081.5ZM794.426 1338C794.426 1343.33 791.759 1346 786.426 1346C776.759 1346 766.926 1345.5 756.926 1344.5C746.926 1343.83 736.926 1343.5 726.926 1343.5C716.926 1343.5 706.759 1343.83 696.426 1344.5C686.426 1345.5 676.426 1346 666.426 1346C664.092 1346 662.426 1345.17 661.426 1343.5C660.426 1341.5 659.926 1339.67 659.926 1338C659.926 1332.67 662.426 1330 667.426 1330C670.759 1330 673.926 1330.17 676.926 1330.5C679.926 1330.83 682.926 1331 685.926 1331C689.926 1331 692.426 1329.67 693.426 1327C694.759 1324.33 695.426 1321.33 695.426 1318V1119.5C695.426 1116.17 695.092 1112.5 694.426 1108.5C693.759 1104.17 691.092 1102 686.426 1102C682.092 1102 677.592 1102.33 672.926 1103C668.259 1103.67 663.592 1104 658.926 1104C656.926 1104 654.926 1103.5 652.926 1102.5C651.259 1101.5 650.426 1099.83 650.426 1097.5C650.426 1093.17 652.592 1090.33 656.926 1089C660.592 1088.33 664.426 1087.83 668.426 1087.5C672.759 1086.83 676.759 1086.33 680.426 1086C692.092 1084.33 703.426 1082.33 714.426 1080C725.759 1077.33 737.092 1074.67 748.426 1072C749.426 1072 750.426 1072 751.426 1072C752.426 1071.67 753.259 1071.5 753.926 1071.5C758.926 1071.5 761.426 1073.5 761.426 1077.5C761.426 1117.5 761.259 1157.67 760.926 1198C760.592 1238 760.426 1278 760.426 1318C760.426 1324 761.759 1327.83 764.426 1329.5C767.092 1330.83 770.426 1331.33 774.426 1331C778.759 1330.67 783.092 1330.5 787.426 1330.5C792.092 1330.5 794.426 1333 794.426 1338ZM762.926 994.5C762.926 1004.83 759.092 1013.83 751.426 1021.5C744.092 1029.17 735.092 1033 724.426 1033C714.092 1033 705.092 1029.17 697.426 1021.5C689.759 1013.83 685.926 1004.83 685.926 994.5C685.926 983.833 689.759 974.833 697.426 967.5C705.092 959.833 714.092 956 724.426 956C735.092 956 744.092 959.833 751.426 967.5C759.092 974.833 762.926 983.833 762.926 994.5Z" fill="black"/>
<path d="M1209.3 987C1209.3 993.333 1205.97 996.5 1199.3 996.5C1195.97 996.5 1192.63 996.333 1189.3 996C1185.97 995.667 1182.8 995.5 1179.8 995.5C1176.47 995.5 1173.47 997.333 1170.8 1001C1168.13 1004.67 1166.3 1008 1165.3 1011C1159.97 1024.67 1155.13 1038.5 1150.8 1052.5C1146.8 1066.5 1142.47 1080.5 1137.8 1094.5C1129.47 1121.17 1120.8 1147.67 1111.8 1174C1102.8 1200.33 1093.8 1226.83 1084.8 1253.5C1080.47 1266.17 1076.13 1278.83 1071.8 1291.5C1067.8 1304.17 1063.63 1316.83 1059.3 1329.5C1057.97 1333.17 1055.97 1337 1053.3 1341C1050.63 1344.67 1046.97 1346.5 1042.3 1346.5L998.301 1347.5C986.301 1309.83 973.134 1271.5 958.801 1232.5C944.801 1193.5 930.967 1154.83 917.301 1116.5C912.967 1103.83 908.634 1092.17 904.301 1081.5C900.301 1070.83 895.967 1059.17 891.301 1046.5C889.634 1041.17 887.301 1035 884.301 1028C881.301 1020.67 878.801 1014.33 876.801 1009C874.467 1003.33 870.301 1000.17 864.301 999.5C858.634 998.833 853.301 998.5 848.301 998.5C844.967 998.5 841.967 998 839.301 997C836.634 996 835.301 993.333 835.301 989C835.301 986.333 836.134 984 837.801 982C839.467 979.667 841.801 978.5 844.801 978.5C850.801 978.5 856.801 978.667 862.801 979C869.134 979.333 875.467 979.5 881.801 979.5C897.134 979.5 912.467 979.5 927.801 979.5C943.134 979.5 958.467 979.333 973.801 979C977.467 978.667 981.301 978.5 985.301 978.5C989.301 978.167 993.134 978 996.801 978C999.467 978 1001.3 979 1002.3 981C1003.63 983 1004.3 985.167 1004.3 987.5C1004.3 989.833 1003.63 992 1002.3 994C1001.3 996 999.467 997 996.801 997C991.467 997 986.134 997 980.801 997C975.801 996.667 970.634 996.5 965.301 996.5C957.634 996.5 953.801 1000.5 953.801 1008.5C953.801 1011.83 954.301 1015.5 955.301 1019.5C956.634 1023.17 957.801 1026.67 958.801 1030C972.801 1074.33 987.301 1119.17 1002.3 1164.5C1017.3 1209.83 1031.8 1253.5 1045.8 1295.5C1060.47 1252.5 1074.13 1209.17 1086.8 1165.5C1099.8 1121.83 1111.8 1078.17 1122.8 1034.5C1123.8 1029.83 1124.97 1024.83 1126.3 1019.5C1127.63 1014.17 1128.3 1009.17 1128.3 1004.5C1128.3 998.833 1126.8 996 1123.8 996C1120.8 995.667 1116.97 995.5 1112.3 995.5C1109.3 995.5 1106.3 995.833 1103.3 996.5C1100.63 996.833 1097.8 997 1094.8 997C1092.13 997 1089.47 996.333 1086.8 995C1084.47 993.333 1083.3 990.833 1083.3 987.5C1083.3 981.5 1086.13 978.5 1091.8 978.5C1096.47 978.5 1101.13 978.667 1105.8 979C1110.8 979.333 1115.63 979.5 1120.3 979.5C1124.97 979.5 1129.47 979.5 1133.8 979.5C1138.13 979.5 1142.47 979.333 1146.8 979C1155.47 979 1164.3 978.667 1173.3 978C1182.63 977.333 1191.63 977 1200.3 977C1202.97 977 1205.13 978.167 1206.8 980.5C1208.47 982.5 1209.3 984.667 1209.3 987ZM1560.25 1258C1560.25 1263.33 1559.59 1268.83 1558.25 1274.5C1557.25 1279.83 1556.42 1285.33 1555.75 1291C1555.09 1297.33 1554.25 1303.83 1553.25 1310.5C1552.59 1317.17 1551.92 1323.83 1551.25 1330.5C1550.25 1335.83 1548.75 1339.5 1546.75 1341.5C1544.75 1343.17 1540.92 1344 1535.25 1344C1501.25 1344 1467.25 1343.83 1433.25 1343.5C1399.25 1342.83 1365.25 1342.5 1331.25 1342.5C1319.59 1342.5 1307.92 1343 1296.25 1344C1284.59 1345.33 1272.92 1346 1261.25 1346C1255.59 1346 1252.75 1343.17 1252.75 1337.5C1252.75 1331.83 1255.25 1329 1260.25 1329C1265.25 1328.67 1270.59 1328.17 1276.25 1327.5C1282.92 1326.83 1288.25 1324.33 1292.25 1320C1296.59 1315.33 1298.75 1306 1298.75 1292V1022.5C1298.75 1017.17 1297.75 1012 1295.75 1007C1294.09 1002 1289.92 999.5 1283.25 999.5C1279.25 999.5 1275.25 999.667 1271.25 1000C1267.25 1000 1263.25 1000 1259.25 1000C1250.92 1000 1246.75 996 1246.75 988C1246.75 984 1248.09 981.5 1250.75 980.5C1253.42 979.167 1256.42 978.5 1259.75 978.5C1269.42 978.5 1278.92 978.833 1288.25 979.5C1297.59 979.833 1306.92 980 1316.25 980C1347.59 980 1378.92 979.833 1410.25 979.5C1441.59 978.833 1472.92 978.5 1504.25 978.5C1510.25 978.5 1516.25 978.333 1522.25 978C1528.25 977.333 1534.25 976.667 1540.25 976C1540.92 981.333 1541.59 986.667 1542.25 992C1543.25 997.333 1544.09 1002.67 1544.75 1008C1545.75 1014.33 1547.09 1021 1548.75 1028C1550.75 1035 1551.75 1041.83 1551.75 1048.5C1551.75 1052.5 1550.09 1055.83 1546.75 1058.5C1543.42 1060.83 1539.92 1062 1536.25 1062C1528.25 1062 1522.92 1058.5 1520.25 1051.5C1515.25 1035.83 1507.75 1022.83 1497.75 1012.5C1488.09 1001.83 1474.42 996.5 1456.75 996.5H1366.75V1143.5C1379.42 1143.5 1391.75 1143.33 1403.75 1143C1416.09 1142.67 1428.42 1142 1440.75 1141C1453.09 1140 1464.92 1138 1476.25 1135C1480.92 1134 1485.75 1132.67 1490.75 1131C1496.09 1129.33 1501.09 1128.5 1505.75 1128.5C1509.75 1128.5 1511.75 1130.33 1511.75 1134C1511.75 1136.33 1511.09 1139.83 1509.75 1144.5C1508.75 1149.17 1507.92 1152.67 1507.25 1155C1505.59 1159.33 1503.92 1162 1502.25 1163C1500.59 1163.67 1497.59 1164 1493.25 1164C1485.25 1164 1477.42 1163.5 1469.75 1162.5C1457.09 1161.17 1444.25 1160.33 1431.25 1160C1418.25 1159.33 1405.25 1159 1392.25 1159C1384.92 1159 1378.75 1161 1373.75 1165C1369.09 1168.67 1366.75 1174.5 1366.75 1182.5V1305.5C1366.75 1313.5 1367.75 1319.17 1369.75 1322.5C1372.09 1325.83 1377.42 1327.5 1385.75 1327.5C1394.75 1327.5 1404.75 1327.5 1415.75 1327.5C1426.75 1327.5 1437.92 1327 1449.25 1326C1460.92 1325 1471.75 1322.83 1481.75 1319.5C1491.75 1316.17 1500.09 1311.17 1506.75 1304.5C1512.42 1298.83 1517.92 1291.33 1523.25 1282C1528.59 1272.67 1532.92 1264.33 1536.25 1257C1537.92 1253 1539.59 1250.33 1541.25 1249C1542.92 1247.33 1545.92 1246.5 1550.25 1246.5C1554.25 1246.5 1556.92 1247.5 1558.25 1249.5C1559.59 1251.5 1560.25 1254.33 1560.25 1258ZM1829.17 1069C1829.17 1044.33 1823.67 1025.33 1812.67 1012C1802 998.667 1783.83 992 1758.17 992H1749.17C1746.5 992 1743.67 992 1740.67 992C1737.67 992 1734.83 992.333 1732.17 993C1728.83 994 1726.67 995.5 1725.67 997.5C1724.67 999.5 1724.17 1002.33 1724.17 1006C1724.17 1025.33 1724 1044.67 1723.67 1064C1723.67 1083 1723.67 1102.33 1723.67 1122V1142.5C1726 1142.83 1728.33 1143.17 1730.67 1143.5C1733 1143.5 1735.33 1143.5 1737.67 1143.5C1755 1143.5 1770.5 1141.5 1784.17 1137.5C1798.17 1133.17 1809.17 1125.67 1817.17 1115C1825.17 1104 1829.17 1088.67 1829.17 1069ZM1956.17 1337C1956.17 1340 1953.33 1342.33 1947.67 1344C1942.33 1345.33 1935.83 1346.17 1928.17 1346.5C1920.83 1347.17 1913.83 1347.5 1907.17 1347.5C1900.5 1347.83 1896 1348 1893.67 1348C1881 1348 1869.5 1346.67 1859.17 1344C1849.17 1341.33 1840.67 1333.83 1833.67 1321.5C1818.33 1294.83 1803.33 1267.83 1788.67 1240.5C1774 1212.83 1759.33 1185.33 1744.67 1158L1723.67 1157.5C1723.67 1183.83 1723.67 1210.33 1723.67 1237C1724 1263.33 1724.17 1289.83 1724.17 1316.5C1724.17 1319.5 1725 1322.5 1726.67 1325.5C1728.33 1328.17 1730.83 1329.5 1734.17 1329.5C1738.17 1329.5 1742.17 1329.33 1746.17 1329C1750.17 1328.67 1754.17 1328.5 1758.17 1328.5C1759.83 1328.5 1761.33 1329.67 1762.67 1332C1764.33 1334 1765.17 1335.83 1765.17 1337.5C1765.17 1339.83 1764.5 1341.83 1763.17 1343.5C1762.17 1345.17 1760.5 1346 1758.17 1346C1755.17 1346 1752.33 1345.83 1749.67 1345.5C1747 1345.17 1744.33 1345 1741.67 1345C1735.67 1344.33 1729.67 1344 1723.67 1344C1717.67 1344 1711.67 1344 1705.67 1344C1691.33 1344 1676.83 1344.33 1662.17 1345C1647.83 1345.67 1633.33 1346 1618.67 1346C1613 1346 1610.17 1343 1610.17 1337C1610.17 1334.67 1611.17 1332.83 1613.17 1331.5C1615.17 1329.83 1617.33 1329 1619.67 1329C1623 1329 1626.33 1329.17 1629.67 1329.5C1633 1329.83 1636.33 1330 1639.67 1330C1644.33 1330 1648.33 1329.17 1651.67 1327.5C1655 1325.83 1656.67 1322.33 1656.67 1317V1008C1656.67 1003 1655.67 999.667 1653.67 998C1651.67 996 1648.33 995 1643.67 995C1640.33 995 1637 995.167 1633.67 995.5C1630.33 995.833 1627 996 1623.67 996C1621.33 996 1618.83 995.167 1616.17 993.5C1613.83 991.833 1612.67 989.667 1612.67 987C1612.67 980.667 1616.33 977.5 1623.67 977.5C1627 977.5 1630.33 977.667 1633.67 978C1637 978 1640.33 978.167 1643.67 978.5C1650.33 978.833 1657.17 979.167 1664.17 979.5C1671.17 979.5 1678 979.5 1684.67 979.5C1700.67 979.5 1716.5 979 1732.17 978C1748.17 976.667 1764 976 1779.67 976C1793.33 976 1807.33 977.333 1821.67 980C1836 982.333 1849.33 986.667 1861.67 993C1874.33 999.333 1884.5 1008 1892.17 1019C1899.83 1029.67 1903.67 1043.33 1903.67 1060C1903.67 1080.33 1899.5 1096.67 1891.17 1109C1883.17 1121.33 1872 1130.83 1857.67 1137.5C1843.67 1144.17 1827.67 1149.33 1809.67 1153C1824.33 1179.67 1840.17 1205.83 1857.17 1231.5C1874.17 1257.17 1891.33 1282.5 1908.67 1307.5C1913.33 1313.83 1919.33 1319.5 1926.67 1324.5C1934 1329.17 1941.5 1331.5 1949.17 1331.5C1951.5 1331.5 1953.17 1331.83 1954.17 1332.5C1955.5 1332.83 1956.17 1334.33 1956.17 1337Z" fill="#1125FF"/>
</svg>
